<svg height="91" viewBox="0 0 117 91" width="117" xmlns="http://www.w3.org/2000/svg"><g fill="none" transform="translate(.0367 -.1024)"><g fill="#161616"><path d="m66.8533074 3.34535201c-1.525 2.046-2.355 4.754-2.496 8.21199999-2.69-.206-4.894.739-6.37 2.81-1.939 2.725-2.107 6.353-1.875 9.34-2.424-.782-4.423-.591-5.952.588-3.303 2.538-2.741 8.61-2.34 11.101.077.503.18 1.02.286 1.541-.4010523-.2479228-.8127809-.4781438-1.234-.69-2.564-1.302-4.64-1.376-6.16-.225-2.772 2.094-2.104 7.314-1.696 9.457.482 2.497 1.278 5.004 2.217 7.381-1.828-2.018-3.54-3.485-5.185-4.425-2.079-1.19-3.766-1.322-5.02-.395-2.176 1.607-1.658 5.54-1.16 7.738 1.073 4.73 3.5 9.53 5.343 12.722 1.339 2.319 2.825 4.576 4.307 6.526 2.876 3.791 5.455 6.309 7.89 7.704 2.078 1.19 3.768 1.325 5.022.399 2.172-1.605 1.654-5.538 1.153-7.74-.2653138-1.1536031-.5941481-2.29167-.985-3.409 3.217 3.868 6.261 6.545 9.062 7.96 2.569 1.3 4.637 1.372 6.16.225 1.873-1.415 2.172-4.262 2.043-6.62 1.97 1.657 3.88 2.903 5.72 3.72 3.06 1.36 5.531 1.342 7.343-.055 1.375-1.056 2.073-2.719 2.404-4.485 1.316.821 2.603 1.481 3.87 1.974 3.555 1.384 6.437 1.247 8.573-.42.944-.735 1.694-1.786 2.2449996-3.079.827.397 1.66.742 2.505 1.026 4.064 1.376 7.372 1.083 9.843-.867 3.114-2.464 4.564-7.617 3.963-14.148-.753-8.239-4.325-18.244-10.05-28.16-2.875-4.98-6.174-9.728-9.5359996-13.726-6.45-7.67199999-12.657-12.55399999-18.445-14.51499999-4.918-1.654-8.98-.76-11.444 2.535zm-5.965 11.47599999c.99-1.37 2.451-1.96 4.365-1.764.023.538.053 1.09.098 1.656.502 5.822 2.387 12.504 5.432 19.412-3.942-4.78-7.714-8.163-11.248-10.074-.218-1.841-.655-6.448 1.353-9.23zm14.259 31.441c3.97 6.877 6.66 13.724 7.576 19.291.057.34.102.668.145.992-2.318-2.007-4.722-4.516-7.15-7.5-2.757-3.38-5.49-7.37-7.9-11.543-4.003-6.935-6.823-13.855-8.129-19.859 2.756 1.944 5.716 4.894 8.844 8.828 2.296 2.884 4.581 6.27 6.614 9.79zm2.262-3.845c-5.486-9.502-8.912-19.014-9.654-26.791-.019-.225-.038-.45-.055-.67 4.378 1.737 9.204 5.813 14.353 12.11 2.754 3.37 5.48 7.344 7.877 11.496 4.719 8.173 7.785 16.337 8.639 22.996.25 1.946.27 3.714.09 5.237-4.683-2.98-8.987-7.462-12.086-11.156-3.222-3.847-6.391-8.42-9.163-13.22v-.002zm-25.74 38.595c-.244.176-.961.142-2.194-.538-2.138-1.18-4.564-3.532-7.208-6.989-1.5178231-1.9995234-2.9066392-4.09377-4.158-6.27-2.489-4.312-4.273-8.6-5.025-12.074-.668-3.092-.205-4.77.244-5.095.244-.177.961-.143 2.191.533 2.136 1.176 4.562 3.528 7.209 6.99 1.5173478 1.9996457 2.9058238 4.0938829 4.157 6.27 2.49 4.311 4.274 8.6 5.026 12.073.663 3.095.204 4.77-.242 5.1zm15.55-9.978c.605 3.306.285 6.072-.788 6.882-.834.623-2.33.11-3.434-.433-2.87-1.405-6.086-4.361-9.568-8.79-1.865-2.376-3.73-5.151-5.39-8.026-3.222-5.582-5.457-11.151-6.288-15.68-.608-3.31-.288-6.077.792-6.884.834-.624 2.33-.11 3.439.43 1.112.544 2.283 1.328 3.498 2.336 1.376 4.63 3.61 9.701 6.522 14.744 2.104 3.645 4.488 7.153 6.9 10.14 1.3269608 1.6548375 2.7371104 3.2412141 4.225 4.753.025.181.06.357.092.529zm-12.948-26.013c.48.629.97 1.288 1.465 1.98 1.8644589 2.622226 3.6021206 5.3323375 5.207 8.121 1.767 3.068 3.307 6.083 4.542 8.896-.079-.109-.159-.21-.24-.323-2.165-2.969-4.39-6.401-6.426-9.93-1.6473399-2.8444509-3.1648974-5.7621119-4.548-8.744zm27.695 30.017c-.999.766-2.58.689-4.7-.235-2.337-1.02-4.838-2.845-7.475-5.447-1.317-5.702-4.127-11.32-6.337-15.147-1.722-2.982-3.652-5.867-5.59-8.339-2.032-2.595-3.96-4.697-5.815-6.339-.424586-1.4752925-.7572251-2.9755081-.996-4.492-.641-4.158-.098-7.45 1.416-8.616 1-.766 2.584-.684 4.708.238.007.001.017.008.024.01 1.035 6.85 4.131 14.978 8.79 23.047 2.487 4.309 5.325 8.433 8.202 11.929 3.22 3.914 6.362 7.014 9.398 9.297-.162 1.945-.721 3.4-1.624 4.094zm14.847-3.101c-1.355 1.058-3.386 1.07-6.04.035-1.472-.575-3.022-1.437-4.62-2.559-.0138325-1.2129963-.117449-2.4233041-.31-3.621-.537-3.353-1.66-7.119-3.283-11.058.68.876 1.363 1.739 2.05 2.557 3.467 4.12 8.354 9.158 13.759 12.382-.385.98-.905 1.755-1.556 2.263zm-18.4-69.08699999c5.275 1.726 11.26 6.41 17.298 13.53799999 3.26 3.846 6.4499996 8.424 9.2299996 13.24 5.504 9.532 8.896 19.102 9.552 26.951.467 5.607-.66 9.92-3.109 11.841-1.75 1.371-4.247 1.543-7.426.502-.887771-.2939171-1.754451-.6480732-2.594-1.06.406-2.012.471-4.376.165-7-.83-7.056-3.9829996-15.62-8.8879996-24.115-2.476-4.288-5.304-8.396-8.176-11.871-5.506-6.674-10.789-10.995-15.692-12.846-.3293677-.1240757-.6628974-.2368087-1-.338.1-3.10599999.787-5.46399999 2.075-7.15799999 1.812-2.387 4.688-2.954 8.564-1.684zm-56.54 81.55399999c-.547-1.96-1.566-3.94-2.324-5.254-.5423958-.9406398-1.1331885-1.85253-1.77-2.732-.956-1.31-1.857-2.472-3.227-3.415-1.43-.99-2.421-.715-3.002-.31-1.263.88-1.058 2.742-.67 4.147.547 1.96 1.567 3.94 2.325 5.254.5423957.9406398 1.1331884 1.8525301 1.77 2.732.956 1.31 1.86 2.47 3.227 3.415 1.434.987 2.42.715 3.001.31 1.266-.876 1.059-2.742.67-4.147zm-4.555-1.82c-.5679137-.8167809-1.101056-1.6571974-1.598-2.519-.97-1.681-1.739-3.323-2.163-4.627-.046-.142-.083-.278-.12-.403.724.683 1.32 1.504 1.998 2.464.5679136.816781 1.101056 1.6571974 1.598 2.519.971 1.681 1.74 3.323 2.16 4.63.046.141.087.275.12.402-.718-.681-1.314-1.501-1.995-2.466zm20.51-2.643c-.854-3.358-2.59-6.766-3.896-9.03-.9267687-1.6126262-1.9461416-3.1702333-3.053-4.665-2.027-2.728-3.844-4.578-5.548-5.653-1.62-1.023-2.967-1.162-4.013-.41-1.753 1.257-1.288 4.31-.856 6.018.854 3.358 2.588 6.761 3.897 9.03.9267629 1.6126297 1.946136 3.1702371 3.053 4.665 2.026 2.728 3.843 4.578 5.548 5.653 1.623 1.028 2.977 1.168 4.018.418 1.748-1.265 1.283-4.318.85-6.026zm-4.004 2.605c-1.35-.897-2.931-2.576-4.696-4.975-1.0196628-1.4019176-1.9636756-2.8573263-2.828-4.36-1.706-2.954-2.995-5.874-3.626-8.212-.445-1.643-.394-2.663-.28-3.016.144.034.437.14.924.463 1.369.91 2.904 2.539 4.689 4.973 1.0196325 1.401593 1.9636449 2.8566672 2.828 4.359 1.706 2.955 2.995 5.875 3.626 8.213.442 1.639.391 2.659.28 3.016-.137-.032-.43-.138-.917-.461zm-29.54000005 8.578c-.203.14-.949.548-1.849-.19-.434-.357-.735-.762-1.009-1.15-.621-.883-1.003-1.62-1.264-2.422-.43-1.305.091-1.907.446-2.15.204-.14.945-.546 1.852.194.434.357.735.762 1.009 1.15.22.313.405.606.57.89.28483299.4865151.51841699 1.0012712.697 1.536.427 1.3-.1 1.9-.452 2.142z"/><ellipse cx="16.438307" cy="80.046352" rx="6.386" ry="1.161" transform="matrix(.51503807 .8571673 -.8571673 .51503807 76.585106 24.729083)"/><ellipse cx="28.859307" cy="72.546352" rx="12.771" ry="3.483" transform="matrix(.51503807 .8571673 -.8571673 .51503807 76.180064 10.444994)"/></g><path d="m11.7913074 72.546352c2.24-1.05 5.133 2.1 7.764 6.479s3.647 8.041 1.647 9.526-4.856-1.35-7.488-5.73c-1.074-1.788-2.082-3.6-2.608-5.254-.762-2.396-.641-4.4.685-5.02zm21.811-2.274c4.276 7.116 6.223 13.802 3.289 15.845-2.935 2.043-8.019-3.423-12.295-10.539-4.275-7.116-5.987-13.321-3.279-15.394 2.708-2.074 8.01 2.971 12.285 10.088zm44.696-69.46199999c5.832 1.726 12.021 6.874 18.445 14.51499999 3.3489996 3.982 7.3779996 9.812 10.1649996 14.783 5.574 9.946 8.763 19.423 9.512 27.63.6 6.504-.952 11.167-4.054 13.621-2.46 1.942-5.483 2.352-9.53.983-.95964-.3293725-1.900691-.7106001-2.819-1.142-.5479996 1.288-1.4709996 2.7-3.2739996 3.801-1.727 1.055-4.265.907-7.804-.471-1.2608137-.478371-2.4699751-1.0831192-3.609-1.805-.33 1.759-.843 3.525-2.404 4.485-1.56.96-3.758 1.68-6.806.325-1.832-.813-4.295-2.34-6.257-3.99.129 2.348-.159 5.687-2.167 6.724s-3.477.965-6.036-.329c-2.79-1.409-5.903-3.746-9.106-7.598.385 1.116.838 2.432 1.094 3.57.499 2.192 1.069 5.935-1.094 7.533-1.25.923-2.932.787-5.002-.398-2.425-1.389-4.993-3.896-7.858-7.672-1.475-1.942-2.956-4.19-4.289-6.5-1.836-3.179-4.198-7.701-5.267-12.413-.496-2.188-1.348-6.738.82-8.338 1.248-.923 3.02-.874 5.09.31 1.639.937 3.519 2.798 5.34 4.807-.936-2.366-1.713-4.806-2.194-7.294-.406-2.134-1.105-7.802 1.656-9.887 1.514-1.147 3.468-1.11 6.022.187.406.203 1.002.753 1.414 1.006-.106-.52-.241-.693-.318-1.193-.4-2.481-1.033-8.935 2.02-11.747 1.47-1.356 3.71-1.385 6.124-.606-.231-2.975-.056-6.626 1.875-9.34 1.47-2.063 3.69-3.015 6.37-2.81.14-3.44399999.977-6.17399999 2.497-8.21199999s4.67-4.54 11.444-2.535zm-75.52700005 84.85599999c.427.42.568.655.834 1.048.584.864.912 1.479 1.13 2.268.392 1.425-.08 1.931-.452 2.142-1.29.732-2.337-.634-2.61-1.02-.219-.312-.545-.73-.708-1.012-.298-.516-.634-1.213-.804-1.73-.427-1.295.181-2.004.446-2.15.203-.14 1.15-.542 2.164.454z" fill="#8fd299" opacity=".3"/></g></svg>