<svg xmlns="http://www.w3.org/2000/svg" width="160" height="195"><g fill="none" fill-rule="evenodd"><path fill="#000" d="m159 107.405-21.877-70.572c0-.26 0-.26-.258-.26l-9.16-5.373h-.507c-.258.26-.507.51-.765 1.018l-8.137 35.795-19.333-62.38s0-.26-.259-.26L89.544 0h-.506c-.259.26-.507.51-.765 1.019L67.16 93.832l-8.644-27.615c0-.26 0-.26-.258-.26l-9.16-5.373h-.507c-.258.26-.507.509-.765 1.018L32.06 130.896l-4.073-13.553s0-.26-.258-.26l-9.16-5.373h-.507c-.258.26-.507.51-.765 1.019L0 188.663v.769h.258l9.16 5.373c.259.26.259.26.507 0l148.02-85.913c.26-.26.508-.26.508-.769.547-.2.547-.46.547-.719zM12 193l15.383-73L37 153.374l-5.766 27.641zm32.8-20.842L33 179 58.384 70 73 116.39l-10.769 46.133zm39.14-22.024L63 162l10.6-45.45L98.418 11 124 91.544l-9.823 41.405zM116 131l22-91 22 66.853z"/><path fill="#8fd299" d="m160 107.405-21.877-70.572c0-.26 0-.26-.258-.26l-9.16-5.373h-.507c-.258.26-.507.51-.765 1.018l-8.137 35.795-19.333-62.38s0-.26-.259-.26L90.544 0h-.506c-.259.26-.507.51-.765 1.019L68.16 93.832l-8.644-27.615c0-.26 0-.26-.258-.26l-9.16-5.373h-.507c-.258.26-.507.509-.765 1.018L33.06 130.896l-4.073-13.553s0-.26-.258-.26l-9.16-5.373h-.507c-.258.26-.507.51-.765 1.019L1 188.663v.769h.258l9.16 5.373c.259.26.259.26.507 0l148.02-85.913c.26-.26.508-.26.508-.769.547-.2.547-.46.547-.719z" opacity=".3"/></g></svg>