<svg xmlns="http://www.w3.org/2000/svg" width="160" height="195.879"><g fill="none" fill-rule="evenodd"><path fill="#000" d="m159.211 47.578-13.984-8.167h-.774l-22.902 13.207V7.942c0-.395 0-.395-.394-.775L107.172-1h-.773L78.066 15.32c-.773.394-1.168 1.168-1.168 1.942v43.919l-8.16-4.66h-.773L39.617 72.84c-.774.394-1.168 1.168-1.168 1.943v49.748l-8.16-4.66h-.774L1.168 136.188C.394 136.584 0 137.36 0 138.132v47.805c0 .395 0 .395.394.774l13.985 8.168h.773l28.348-16.32c.773-.394 1.168-1.168 1.168-1.942v-8.547l8.16 4.66h.773l28.348-16.319c.774-.395 1.168-1.169 1.168-1.943v-8.547l8.16 4.66h.773l28.348-16.318c.774-.395 1.168-1.17 1.168-1.944l-.015-8.182 8.16 4.66h.774l28.347-16.319c.774-.394 1.168-1.169 1.168-1.943v-62.18c-.394-.395-.789-.774-.789-.774v-.003ZM42.667 176.701 16.485 191.97v-45.822l26.182-15.27v45.823Zm38.788-22.185-26.182 15.15V83l26.182-15.15v86.667Zm37.818-21.875L93.09 147.364V25.738l26.166-15.102.016 122.005Zm37.818-21.695-26.182 15.084V66.448l26.182-15.084v59.582Z"/><path fill="#8FD299" d="m159.211 47.578-13.984-8.167h-.774l-22.902 13.207V7.942c0-.395 0-.395-.394-.775L107.172-1h-.773L78.066 15.32c-.773.394-1.168 1.168-1.168 1.942v43.919l-8.16-4.66h-.773L39.617 72.84c-.774.394-1.168 1.168-1.168 1.943v49.748l-8.16-4.66h-.774L1.168 136.188C.394 136.584 0 137.36 0 138.132v47.805c0 .395 0 .395.394.774l13.985 8.168h.773l28.348-16.32c.773-.394 1.168-1.168 1.168-1.942v-8.547l8.16 4.66h.773l28.348-16.319c.774-.395 1.168-1.169 1.168-1.943v-8.547l8.16 4.66h.773l28.348-16.318c.774-.395 1.168-1.17 1.168-1.944l-.015-8.182 8.16 4.66h.774l28.347-16.319c.774-.394 1.168-1.169 1.168-1.943v-62.18c-.394-.395-.789-.774-.789-.774v-.003Z" opacity=".3"/></g></svg>