<svg xmlns="http://www.w3.org/2000/svg" height="29.8" viewBox="0 0 116.792 29.8" width="116.792"><g fill="#fff" fill-rule="evenodd"><g fill-rule="nonzero"><path d="m.239 17v-15.4h5.511c1.50333333 0 2.71516667.32816667 3.6355.9845.9203333.65633333 1.3805 1.62616667 1.3805 2.9095 0 .47666667-.11.92766667-.33 1.353s-.506.7975-.858 1.1165-.726.56283333-1.122.7315c.836.264 1.52533333.737 2.068 1.419.5426667.682.814 1.5143333.814 2.497 0 .8653333-.2181667 1.628-.6545 2.288s-1.05783333 1.1751667-1.8645 1.5455-1.76.5555-2.86.5555zm2.86-2.189h2.409c.96066667 0 1.67933333-.1925 2.156-.5775s.715-.9625.715-1.7325c0-.7553333-.2365-1.3346667-.7095-1.738s-1.18983333-.605-2.1505-.605h-2.42zm0-6.721h2.233c.53533333 0 1.001-.088 1.397-.264s.704-.43083333.924-.7645.33-.7315.33-1.1935c0-.67466667-.23283333-1.18983333-.6985-1.5455s-1.13116667-.5335-1.9965-.5335h-2.189z"></path><path d="m19.126 17.33c-1.1953333 0-2.244-.2438333-3.146-.7315s-1.6041667-1.1678333-2.1065-2.0405-.7535-1.8883333-.7535-3.047c0-.8506667.1448333-1.63166667.4345-2.343s.7003333-1.32916667 1.232-1.8535 1.155-.9295 1.87-1.2155 1.4978333-.429 2.3485-.429c.924 0 1.749.16316667 2.475.4895s1.3291667.78466667 1.8095 1.375.8176667 1.27966667 1.012 2.068c.1943333.7883333.2181667 1.6481667.0715 2.5795h-8.602c-.0073333.5793333.1301667 1.0853333.4125 1.518s.6856667.7718333 1.21 1.0175 1.1421667.3685 1.8535.3685c.6306667 0 1.2356667-.0916667 1.815-.275s1.1183333-.4546667 1.617-.814l.99 1.969c-.3446667.2786667-.7736667.5206667-1.287.726s-1.0541667.363-1.6225.473-1.1128333.165-1.6335.165zm-3.19-7.15h5.709c-.022-.74066667-.2676667-1.32183333-.737-1.7435s-1.1256667-.6325-1.969-.6325c-.836 0-1.5253333.21083333-2.068.6325s-.8543333 1.00283333-.935 1.7435z"></path><path d="m26.793 17v-11h2.816v1.441c.3813333-.64533333.8598333-1.10366667 1.4355-1.375s1.1971667-.407 1.8645-.407c.2346667 0 .451.011.649.033s.3886667.055.572.099l-.352 2.904c-.2273333-.08066667-.4638333-.14116667-.7095-.1815s-.4895-.0605-.7315-.0605c-.792 0-1.4446667.2365-1.958.7095s-.77 1.1348333-.77 1.9855v5.852z"></path><path d="m39.124 17.33c-.748 0-1.4116667-.143-1.991-.429s-1.034-.6911667-1.364-1.2155-.495-1.1458333-.495-1.8645c0-.616.154-1.166.462-1.65s.781-.8855 1.419-1.2045 1.4538333-.5335 2.4475-.6435 2.1725-.0953333 3.5365.044l.044 1.859c-.8946667-.1393333-1.6756667-.2016667-2.343-.187s-1.2191667.0916667-1.6555.231-.7626667.33-.979.572-.3245.5243333-.3245.847c0 .484.176.8561667.528 1.1165s.8323333.3905 1.441.3905c.5206667 0 .9881667-.0953333 1.4025-.286s.7425-.4601667.9845-.8085.363-.7608333.363-1.2375v-2.783c0-.462-.0971667-.8635-.2915-1.2045s-.4895-.605-.8855-.792-.9056667-.2805-1.529-.2805c-.572 0-1.1385.08616667-1.6995.2585s-1.0871667.43816667-1.5785.7975l-.759-2.013c.6966667-.462 1.43-.792 2.2-.99s1.5143333-.297 2.233-.297c1.0266667 0 1.9158333.16133333 2.6675.484s1.331.81583333 1.738 1.4795.6105 1.50516667.6105 2.5245v6.952h-2.486v-1.254c-.3666667.506-.8726667.8965-1.518 1.1715s-1.3713333.4125-2.178.4125z"></path><path d="m52.896 17.33c-1.1293333 0-2.024-.3226667-2.684-.968s-.99-1.6206667-.99-2.926v-10.626h2.816v3.19h2.893v2.288h-2.893v4.587c0 .704.1393333 1.2008333.418 1.4905s.6636667.4345 1.155.4345c.2493333 0 .4858333-.0293333.7095-.088s.4308333-.1356667.6215-.231l.44 2.244c-.3226667.1686667-.7003333.3116667-1.133.429s-.8836667.176-1.353.176zm-5.995-9.042v-2.288h2.64v2.288z"></path><path d="m62.059 17.33c-.99 0-1.8095-.198-2.4585-.594s-1.1311667-.9258333-1.4465-1.5895-.473-1.4061667-.473-2.2275v-6.919h2.816v6.435c0 .704.2016667 1.2668333.605 1.6885s.9716667.6325 1.705.6325c.4693333 0 .891-.1081667 1.265-.3245s.6673333-.5151667.88-.8965.319-.825.319-1.331v-6.204h2.816v11h-2.486v-1.254c-.4033333.4766667-.8928333.8598333-1.4685 1.1495s-1.2668333.4345-2.0735.4345z"></path><path d="m71.332 17v-11h2.816v1.32c.44-.57933333.9551667-.99916667 1.5455-1.2595s1.2081667-.3905 1.8535-.3905c1.012 0 1.8498333.20166667 2.5135.605s1.1568333.92033333 1.4795 1.551.484 1.29066667.484 1.98v7.194h-2.816v-6.314c0-.748-.2163333-1.342-.649-1.782s-1.0376667-.66-1.815-.66c-.506 0-.9551667.11183333-1.3475.3355s-.6985.53716667-.9185.9405-.33.869-.33 1.397v6.083z"></path><path d="m89.471 21.95c-.8213333 0-1.562-.0715-2.222-.2145s-1.2228333-.3501667-1.6885-.6215-.8213333-.5958333-1.067-.9735-.3685-.8011667-.3685-1.2705c0-.374.1008333-.7241667.3025-1.0505s.4986667-.6086667.891-.847.8745-.4161667 1.4465-.5335c-.4326667-.2273333-.7516667-.484-.957-.77s-.308-.6123333-.308-.979c0-.3226667.0935-.627.2805-.913s.4528333-.5426667.7975-.77.7516667-.4106667 1.221-.55.9826667-.2163333 1.54-.231l.572 1.155c-.44-.0073333-.8121667.0238333-1.1165.0935s-.5335.1668333-.6875.2915-.231.275-.231.451c0 .22.1301667.385.3905.495s.6508333.187 1.1715.231l1.881.154c.9166667.0733333 1.7068333.2236667 2.3705.451s1.1733333.55 1.529.968.5335.9496667.5335 1.595c0 .5426667-.1503333 1.0486667-.451 1.518s-.7278333.8763333-1.2815 1.221-1.2155.6141667-1.9855.8085-1.6243333.2915-2.563.2915zm.341-1.87c1.0193333 0 1.8223333-.1485 2.409-.4455s.88-.6765.88-1.1385c0-.3666667-.1906667-.6471667-.572-.8415s-.9643333-.3208333-1.749-.3795l-2.046-.154c-.44.0366667-.814.1173333-1.122.242s-.5426667.2878333-.704.4895-.242.4271667-.242.6765c0 .308.1265.5775.3795.8085s.6141667.4125 1.0835.5445 1.0303333.198 1.683.198zm-.11-6.545c-.9386667 0-1.7746667-.1741667-2.508-.5225s-1.3108333-.8195-1.7325-1.4135-.6325-1.2613333-.6325-2.002c0-.73333333.2126667-1.397.638-1.991s1.0046667-1.06516667 1.738-1.4135 1.5656667-.5225 2.497-.5225c.924 0 1.7526667.17416667 2.486.5225s1.3126667.81766667 1.738 1.408.638 1.25583333.638 1.9965c0 .726-.2108333 1.3878333-.6325 1.9855s-.9991667 1.0725-1.7325 1.4245-1.5656667.528-2.497.528zm0-2.024c.462 0 .8726667-.0806667 1.232-.242s.6416667-.3868333.847-.6765.308-.6215.308-.9955c0-.572-.2236667-1.034-.671-1.386s-1.0193333-.528-1.716-.528c-.4693333 0-.8836667.08066667-1.243.242s-.6398333.385-.8415.671-.3025.61966667-.3025 1.001c0 .5646667.2236667 1.0248333.671 1.3805s1.0193333.5335 1.716.5335zm1.694-3.333-1.056-1.903 6.105-.275-.011 2.288z"></path><path d="m0 28v-5.6h2.004c.54666667 0 .98733333.1193333 1.322.358s.502.5913333.502 1.058c0 .1733333-.04.3373333-.12.492s-.184.29-.312.406-.264.2046667-.408.266c.304.096.55466667.268.752.516s.296.5506667.296.908c0 .3146667-.07933333.592-.238.832s-.38466667.4273333-.678.562-.64.202-1.04.202zm1.04-.796h.876c.34933333 0 .61066667-.07.784-.21s.26-.35.26-.63c0-.2746667-.086-.4853333-.258-.632s-.43266667-.22-.782-.22h-.88zm0-2.444h.812c.19466667 0 .364-.032.508-.096s.256-.1566667.336-.278.12-.266.12-.434c0-.2453333-.08466667-.4326667-.254-.562s-.41133333-.194-.726-.194h-.796zm6.628 3.36c-.43466667 0-.816-.0886667-1.144-.266s-.58333333-.4246667-.766-.742-.274-.6866667-.274-1.108c0-.3093333.05266667-.5933333.158-.852s.25466667-.4833333.448-.674.42-.338.68-.442.54466667-.156.854-.156c.336 0 .636.0593333.9.178s.48333333.2853333.658.5.29733333.4653333.368.752.07933333.5993333.026.938h-3.128c-.00266667.2106667.04733333.3946667.15.552s.24933333.2806667.44.37.41533333.134.674.134c.22933333 0 .44933333-.0333333.66-.1s.40666667-.1653333.588-.296l.36.716c-.12533333.1013333-.28133333.1893333-.468.264s-.38333333.132-.59.172-.40466667.06-.594.06zm-1.16-2.6h2.076c-.008-.2693333-.09733333-.4806667-.268-.634s-.40933333-.23-.716-.23c-.304 0-.55466667.0766667-.752.23s-.31066667.3646667-.34.634zm6.416 2.6c-.4106667 0-.736-.1173333-.976-.352s-.36-.5893333-.36-1.064v-3.864h1.024v1.16h1.052v.832h-1.052v1.668c0 .256.0506667.4366667.152.542s.2413333.158.42.158c.0906667 0 .1766667-.0106667.258-.032s.1566667-.0493333.226-.084l.16.816c-.1173333.0613333-.2546667.1133333-.412.156s-.3213333.064-.492.064zm-2.18-3.288v-.832h.96v.832zm6.468 3.288c-.4106667 0-.736-.1173333-.976-.352s-.36-.5893333-.36-1.064v-3.864h1.024v1.16h1.052v.832h-1.052v1.668c0 .256.0506667.4366667.152.542s.2413333.158.42.158c.0906667 0 .1766667-.0106667.258-.032s.1566667-.0493333.226-.084l.16.816c-.1173333.0613333-.2546667.1133333-.412.156s-.3213333.064-.492.064zm-2.18-3.288v-.832h.96v.832zm6.588 3.288c-.4346667 0-.816-.0886667-1.144-.266s-.5833333-.4246667-.766-.742-.274-.6866667-.274-1.108c0-.3093333.0526667-.5933333.158-.852s.2546667-.4833333.448-.674.42-.338.68-.442.5446667-.156.854-.156c.336 0 .636.0593333.9.178s.4833333.2853333.658.5.2973333.4653333.368.752.0793333.5993333.026.938h-3.128c-.0026667.2106667.0473333.3946667.15.552s.2493333.2806667.44.37.4153333.134.674.134c.2293333 0 .4493333-.0333333.66-.1s.4066667-.1653333.588-.296l.36.716c-.1253333.1013333-.2813333.1893333-.468.264s-.3833333.132-.59.172-.4046667.06-.594.06zm-1.16-2.6h2.076c-.008-.2693333-.0973333-.4806667-.268-.634s-.4093333-.23-.716-.23c-.304 0-.5546667.0766667-.752.23s-.3106667.3646667-.34.634zm4.748 2.48v-4h1.024v.524c.1386667-.2346667.3126667-.4013333.522-.5s.4353333-.148.678-.148c.0853333 0 .164.004.236.012s.1413333.02.208.036l-.128 1.056c-.0826667-.0293333-.1686667-.0513333-.258-.066s-.178-.022-.266-.022c-.288 0-.5253333.086-.712.258s-.28.4126667-.28.722v2.128zm8.044 0v-4.648h-1.548v-.952h4.14v.952h-1.548v4.648zm5.588.12c-.4266667 0-.8046667-.0966667-1.134-.29s-.5873333-.4506667-.774-.772-.28-.674-.28-1.058c0-.2826667.0533333-.552.16-.808s.258-.482.454-.678.4273333-.3506667.694-.464.56-.17.88-.17c.424 0 .8006667.096 1.13.288s.588.4493333.776.772.282.676.282 1.06c0 .2826667-.054.5513333-.162.806s-.2593333.4806667-.454.678-.4253333.3526667-.692.466-.56.17-.88.17zm0-.896c.224 0 .4246667-.05.602-.15s.3166667-.2413333.418-.424.152-.3993333.152-.65-.0506667-.468-.152-.652-.24-.3253333-.416-.424-.3773333-.148-.604-.148-.4286667.0493333-.606.148-.316.24-.416.424-.15.4013333-.15.652.0506667.4673333.152.65.24.324.416.424.3773333.15.604.15zm5.4 2.576c-.2986667 0-.568-.026-.808-.078s-.4446667-.1273333-.614-.226-.2986667-.2166667-.388-.354-.134-.2913333-.134-.462c0-.136.0366667-.2633333.11-.382s.1813333-.2213333.324-.308.318-.1513333.526-.194c-.1573333-.0826667-.2733333-.176-.348-.28s-.112-.2226667-.112-.356c0-.1173333.034-.228.102-.332s.1646667-.1973333.29-.28.2733333-.1493333.444-.2.3573333-.0786667.56-.084l.208.42c-.16-.0026667-.2953333.0086667-.406.034s-.194.0606667-.25.106-.084.1-.084.164c0 .08.0473333.14.142.18s.2366667.068.426.084l.684.056c.3333333.0266667.6206667.0813333.862.164s.4266667.2.556.352.194.3453333.194.58c0 .1973333-.0546667.3813333-.164.552s-.2646667.3186667-.466.444-.442.2233333-.722.294-.5906667.106-.932.106zm.124-.68c.3706667 0 .6626667-.054.876-.162s.32-.246.32-.414c0-.1333333-.0693333-.2353333-.208-.306s-.3506667-.1166667-.636-.138l-.744-.056c-.16.0133333-.296.0426667-.408.088s-.1973333.1046667-.256.178-.088.1553333-.088.246c0 .112.046.21.138.294s.2233333.15.394.198.3746667.072.612.072zm-.04-2.38c-.3413333 0-.6453333-.0633333-.912-.19s-.4766667-.298-.63-.514-.23-.4586667-.23-.728c0-.2666667.0773333-.508.232-.724s.3653333-.3873333.632-.514.5693333-.19.908-.19c.336 0 .6373333.0633333.904.19s.4773333.2973333.632.512.232.4566667.232.726c0 .264-.0766667.5046667-.23.722s-.3633333.39-.63.518-.5693333.192-.908.192zm0-.736c.168 0 .3173333-.0293333.448-.088s.2333333-.1406667.308-.246.112-.226.112-.362c0-.208-.0813333-.376-.244-.504s-.3706667-.192-.624-.192c-.1706667 0-.3213333.0293333-.452.088s-.2326667.14-.306.244-.11.2253333-.11.364c0 .2053333.0813333.3726667.244.502s.3706667.194.624.194zm.616-1.212-.384-.692 2.22-.1-.004.832zm5.204 3.328c-.4346667 0-.816-.0886667-1.144-.266s-.5833333-.4246667-.766-.742-.274-.6866667-.274-1.108c0-.3093333.0526667-.5933333.158-.852s.2546667-.4833333.448-.674.42-.338.68-.442.5446667-.156.854-.156c.336 0 .636.0593333.9.178s.4833333.2853333.658.5.2973333.4653333.368.752.0793333.5993333.026.938h-3.128c-.0026667.2106667.0473333.3946667.15.552s.2493333.2806667.44.37.4153333.134.674.134c.2293333 0 .4493333-.0333333.66-.1s.4066667-.1653333.588-.296l.36.716c-.1253333.1013333-.2813333.1893333-.468.264s-.3833333.132-.59.172-.4046667.06-.594.06zm-1.16-2.6h2.076c-.008-.2693333-.0973333-.4806667-.268-.634s-.4093333-.23-.716-.23c-.304 0-.5546667.0766667-.752.23s-.3106667.3646667-.34.634zm6.416 2.6c-.4106667 0-.736-.1173333-.976-.352s-.36-.5893333-.36-1.064v-3.864h1.024v1.16h1.052v.832h-1.052v1.668c0 .256.0506667.4366667.152.542s.2413333.158.42.158c.0906667 0 .1766667-.0106667.258-.032s.1566667-.0493333.226-.084l.16.816c-.1173333.0613333-.2546667.1133333-.412.156s-.3213333.064-.492.064zm-2.18-3.288v-.832h.96v.832zm4.76 3.168v-5.76h1.024v2.604l-.212-.24c.176-.2373333.3866667-.4173333.632-.54s.5093333-.184.792-.184c.368 0 .674.0733333.918.22s.4273333.3373333.55.572.184.4826667.184.744v2.584h-1.024v-2.292c0-.264-.0806667-.4786667-.242-.644s-.382-.248-.662-.248c-.1866667-.0026667-.3506667.036-.492.116s-.2506667.194-.328.342-.116.3206667-.116.518v2.208zm7.676.12c-.4346667 0-.816-.0886667-1.144-.266s-.5833333-.4246667-.766-.742-.274-.6866667-.274-1.108c0-.3093333.0526667-.5933333.158-.852s.2546667-.4833333.448-.674.42-.338.68-.442.5446667-.156.854-.156c.336 0 .636.0593333.9.178s.4833333.2853333.658.5.2973333.4653333.368.752.0793333.5993333.026.938h-3.128c-.0026667.2106667.0473333.3946667.15.552s.2493333.2806667.44.37.4153333.134.674.134c.2293333 0 .4493333-.0333333.66-.1s.4066667-.1653333.588-.296l.36.716c-.1253333.1013333-.2813333.1893333-.468.264s-.3833333.132-.59.172-.4046667.06-.594.06zm-1.16-2.6h2.076c-.008-.2693333-.0973333-.4806667-.268-.634s-.4093333-.23-.716-.23c-.304 0-.5546667.0766667-.752.23s-.3106667.3646667-.34.634zm4.748 2.48v-4h1.024v.524c.1386667-.2346667.3126667-.4013333.522-.5s.4353333-.148.678-.148c.0853333 0 .164.004.236.012s.1413333.02.208.036l-.128 1.056c-.0826667-.0293333-.1686667-.0513333-.258-.066s-.178-.022-.266-.022c-.288 0-.5253333.086-.712.258s-.28.4126667-.28.722v2.128z" opacity=".6"></path></g><path d="m106.79224 0-6.00024 16h9.99976l6.00024-16z"></path></g></svg>